<svg xmlns="http://www.w3.org/2000/svg" width="1200" height="520" viewBox="0 0 1200 520" role="img" data-theme="light">
<title>Divyanshu Goyal — AI architect, founder, builder</title>
<defs><pattern id="g" width="32" height="32" patternUnits="userSpaceOnUse"><path d="M32 0H0V32" fill="none" stroke="#edf1f5"/></pattern><linearGradient id="p"><stop stop-color="#a66200"/><stop offset="1" stop-color="#087f78"/></linearGradient></defs>
<style>.s{font-family:-apple-system,BlinkMacSystemFont,'Segoe UI',Arial,sans-serif}.m{font-family:ui-monospace,SFMono-Regular,Menlo,Consolas,monospace}.n{font-size:48px;font-weight:800}.r{font-size:14px;font-weight:700;letter-spacing:1.6px}.e{font-size:13px;font-weight:700;letter-spacing:1.8px}.t{font-size:25px;font-weight:700}.b{font-size:15px}.x{font-size:11px;letter-spacing:.7px}.a{font-size:13px;font-weight:700;white-space:pre}.q{font-size:28px;font-weight:800}</style>
<rect width="1200" height="520" rx="18" fill="#fbfcfe"/><rect x="1" y="1" width="1198" height="518" rx="17" fill="#ffffff" stroke="#d8dee7"/><rect x="1" y="1" width="1198" height="518" rx="17" fill="url(#g)" opacity=".5"/>
<line x1="28" y1="54" x2="1172" y2="54" stroke="#d8dee7"/><text x="30" y="35" class="m e" fill="#6b7280">deevyanshoo@operator</text><circle cx="990" cy="31" r="4" fill="#15803d"/><text x="1004" y="35" class="m x" fill="#6b7280">LIVE // 258 CONTRIBUTIONS YTD</text>
<line x1="432" y1="76" x2="432" y2="458" stroke="#d8dee7"/><text x="30" y="84" class="m e" fill="#087f78">PORTRAIT // ASCII SCAN</text>
<g class="m a" fill="#374151" opacity=".84"><text x="30" y="108">           =++*%%*+-:.</text><text x="30" y="121">         @@@@@@@@@@@@@%=.</text><text x="30" y="134">       @@@@@@@@@@@@@@@@@#:</text><text x="30" y="147">      @@@@@@@@@@###@@@@@@*</text><text x="30" y="160">     @#=--==*+=:..:=*#@@@*</text><text x="30" y="173">     %.            .-+%@@%</text><text x="30" y="186">    @-               :+%@#</text><text x="30" y="199">    @+.            .=*%#@#++.</text><text x="30" y="212">   @#*.  .:==----=*@#%%#@@@@-</text><text x="30" y="225">   #%+-*%%**%%*%@#@#+%%###=#:</text><text x="30" y="238">   **#@@*-+**= =* %#:::.:+-*</text><text x="30" y="251">    =*%@+.     %:  **:::=%#.</text><text x="30" y="264">    .- +%....:=-   :++:::=#-</text><text x="30" y="277">     =. :=--::  :--%#=.  -@%+*****</text><text x="30" y="290">     .=:       .**+*##@#:+@@@@@@@</text><text x="30" y="303">      =+-.  =%+=-::-+%*%+%@@@@@@@</text><text x="30" y="316">       +*=: := ...-+++-%@@@@@@@@</text><text x="30" y="329">      :%###++#=  :+%-:+@@@@@@@@@</text><text x="30" y="342">      @@##@@@@@#+-===%@@@@@@@@@</text><text x="30" y="355">       @@#*@@@@@@@@@@@@@@@@@@@</text><text x="30" y="368">         @%+#@@@@@@@@@@@@@@@</text><text x="30" y="381">           *=+*%#@@@@###@@</text><text x="30" y="394">             -====+=--*@</text></g><text x="30" y="476" class="m x" fill="#6b7280">image-derived // approved desk portrait</text>
<text x="470" y="86" class="m e" fill="#087f78">IDENTITY // 00</text><text x="470" y="137" class="s n" fill="#111827">DIVYANSHU GOYAL</text><text x="470" y="169" class="m r" fill="#a66200">AI ARCHITECT  //  FOUNDER  //  BUILDER</text><text x="470" y="218" class="s t" fill="#111827">making large models fit small boxes</text><text x="470" y="246" class="s b" fill="#374151">I build ambitious AI systems from first principles to production.</text><line x1="470" y1="274" x2="1168" y2="274" stroke="#d8dee7"/>
<text x="470" y="302" class="m e" fill="#a66200">CURRENT MISSION // NNOMI</text><text x="470" y="338" class="s q" fill="#111827">NNOMI</text><text x="590" y="336" class="m x" fill="#087f78">nnomi.com</text><text x="470" y="365" class="s b" fill="#374151">A financial coach for the entire journey</text><text x="470" y="387" class="s b" fill="#374151">from earning money → building wealth.</text>
<line x1="490" y1="414" x2="625" y2="414" stroke="url(#p)" stroke-width="2" opacity=".72"/><line x1="625" y1="414" x2="770" y2="414" stroke="url(#p)" stroke-width="2" opacity=".72"/><line x1="770" y1="414" x2="930" y2="414" stroke="url(#p)" stroke-width="2" opacity=".72"/><line x1="930" y1="414" x2="1080" y2="414" stroke="url(#p)" stroke-width="2" opacity=".72"/><g fill="#a66200"><circle cx="490" cy="414" r="5"/><circle cx="625" cy="414" r="5"/><circle cx="770" cy="414" r="5"/></g><g fill="#087f78"><circle cx="930" cy="414" r="5"/><circle cx="1080" cy="414" r="5"/></g><g class="m x" fill="#6b7280" text-anchor="middle"><text x="490" y="436">EARN</text><text x="625" y="436">SPEND</text><text x="770" y="436">PROTECT</text><text x="930" y="436">INVEST</text><text x="1080" y="436">WEALTH</text></g>
<text x="470" y="462" class="m x" fill="#374151">also building // CHAUFFIT // safety-first on-demand driver marketplace</text><line x1="28" y1="490" x2="1172" y2="490" stroke="#d8dee7"/><g class="m x" fill="#6b7280"><text x="30" y="510">Gurugram ↔ wherever</text><text x="220" y="510">MSE // PENN</text><text x="350" y="510">AI ARCHITECT @ ZS</text><text x="540" y="510">runtime v26</text><text x="690" y="510">inference local &gt; cloud</text></g><text x="930" y="510" class="m x" fill="#a66200">garage_target 911</text>
</svg>