<?xml version="1.0" encoding="UTF-8"?>
<svg xmlns="http://www.w3.org/2000/svg" width="1200" height="420" viewBox="0 0 1200 420" role="img" data-theme="dark" data-build="381b601c461c">
<title>Things I built because I could</title>
<desc>A DAG ledger, aviation forecasting at scale, and Jarvis: distributed systems to large-scale ML to edge AI.</desc>
<style>
.sans{font-family:-apple-system,BlinkMacSystemFont,'Segoe UI',sans-serif}
.mono{font-family:ui-monospace,SFMono-Regular,Menlo,Consolas,monospace}
</style>
<style>
.section-title{font-size:13px;font-weight:760;letter-spacing:1.4px}
.progression{font-size:10px;letter-spacing:.65px}
.system-title{font-size:22px;font-weight:790;letter-spacing:-.35px}
.jarvis-title{font-size:27px}
.system-subtitle{font-size:14px;font-weight:560}
.evidence{font-size:24px;font-weight:780;letter-spacing:-.5px}
.fact{font-size:10px;letter-spacing:.55px}
.note{font-size:12px}
.jarvis-principles{font-size:11px;font-weight:700;letter-spacing:.8px}
</style>
<defs>
<marker id="arrow" viewBox="0 0 8 8" refX="7" refY="4" markerWidth="5" markerHeight="5" orient="auto-start-reverse"><path d="M0 0L8 4L0 8Z" fill="#77828b"/></marker>
</defs>
<rect width="1200" height="420" rx="18" fill="#080b0e"/>
<rect x="1" y="1" width="1198" height="418" rx="17" fill="none" stroke="#263039"/>
<text x="24" y="30" class="sans section-title" fill="#e6a23c">THINGS I BUILT BECAUSE I COULD</text>
<text x="1176" y="30" class="mono progression" fill="#77828b" text-anchor="end">DISTRIBUTED SYSTEMS  →  LARGE-SCALE ML  →  EDGE AI</text>
<path d="M24 48H1176" stroke="#263039"/>
<path d="M306 64V372" stroke="#263039"/>
<path d="M670 64V372" stroke="#263039"/>
<g data-system="dag" data-module-width="280">
<text x="24" y="84" class="sans system-title" fill="#f3f0e8">DAG LEDGER</text>
<text x="24" y="108" class="sans system-subtitle" fill="#c1c7cc">alternative consensus experiment</text>
<text x="24" y="139" class="mono fact" fill="#69b8b0">crawler / network logic</text>
<text x="24" y="157" class="mono fact" fill="#77828b">peer approvals + validation incentives</text>
<path d="M55 218L116 178" stroke="#263039" stroke-width="1.5" marker-end="url(#arrow)"/>
<path d="M55 218L118 272" stroke="#263039" stroke-width="1.5" marker-end="url(#arrow)"/>
<path d="M116 178L188 214" stroke="#263039" stroke-width="1.5" marker-end="url(#arrow)"/>
<path d="M118 272L188 214" stroke="#263039" stroke-width="1.5" marker-end="url(#arrow)"/>
<path d="M116 178L252 166" stroke="#263039" stroke-width="1.5" marker-end="url(#arrow)"/>
<path d="M188 214L252 166" stroke="#263039" stroke-width="1.5" marker-end="url(#arrow)"/>
<path d="M188 214L258 270" stroke="#263039" stroke-width="1.5" marker-end="url(#arrow)"/>
<path d="M252 166L258 270" stroke="#263039" stroke-width="1.5" marker-end="url(#arrow)"/>
<circle cx="55" cy="218" r="10" fill="#080b0e" stroke="#e6a23c" stroke-width="1.5"/>
<circle cx="55" cy="218" r="3" fill="#e6a23c"/>
<circle cx="116" cy="178" r="10" fill="#080b0e" stroke="#e6a23c" stroke-width="1.5"/>
<circle cx="116" cy="178" r="3" fill="#e6a23c"/>
<circle cx="118" cy="272" r="10" fill="#080b0e" stroke="#e6a23c" stroke-width="1.5"/>
<circle cx="118" cy="272" r="3" fill="#e6a23c"/>
<circle cx="188" cy="214" r="10" fill="#080b0e" stroke="#69b8b0" stroke-width="1.5"/>
<circle cx="188" cy="214" r="3" fill="#69b8b0"/>
<circle cx="252" cy="166" r="10" fill="#080b0e" stroke="#69b8b0" stroke-width="1.5"/>
<circle cx="252" cy="166" r="3" fill="#69b8b0"/>
<circle cx="258" cy="270" r="10" fill="#080b0e" stroke="#69b8b0" stroke-width="1.5"/>
<circle cx="258" cy="270" r="3" fill="#69b8b0"/>
<text x="24" y="326" class="sans note" fill="#c1c7cc">DAG, not a linear chain.</text>
<text x="24" y="346" class="sans note" fill="#77828b">Exploring alternatives to linear-chain growth.</text>
</g>
<g data-system="aviation" data-module-width="334">
<text x="330" y="84" class="sans system-title" fill="#f3f0e8">AVIATION FORECASTING</text>
<text x="330" y="108" class="sans system-subtitle" fill="#c1c7cc">demand forecasting 65 days ahead</text>
<text x="330" y="151" class="sans evidence" fill="#e6a23c">&gt;90% accuracy</text>
<text x="520" y="151" class="sans evidence" fill="#f3f0e8">~800 TB/day</text>
<text x="330" y="170" class="mono fact" fill="#77828b">forecast</text>
<text x="520" y="170" class="mono fact" fill="#77828b">data environment</text>
<path d="M330 290H650" stroke="#263039"/>
<path d="M550 190V306" stroke="#263039" stroke-dasharray="4 5"/>
<polyline points="340,279 370,266 400,270 430,245 460,253 490,232 520,242 550,218" fill="none" stroke="#c1c7cc" stroke-width="2"/>
<polyline points="550,218 580,205 610,194 646,177" fill="none" stroke="#e6a23c" stroke-width="2" stroke-dasharray="5 4"/>
<text x="330" y="311" class="mono fact" fill="#77828b">HISTORY</text>
<text x="550" y="311" class="mono fact" fill="#e6a23c" text-anchor="middle">NOW</text>
<text x="650" y="311" class="mono fact" fill="#77828b" text-anchor="end">D+65</text>
<text x="330" y="346" class="sans note" fill="#c1c7cc">Large-scale ML systems that had to work.</text>
</g>
<g data-system="jarvis" data-module-width="486">
<text x="690" y="84" class="sans system-title jarvis-title" fill="#f3f0e8">JARVIS</text>
<text x="690" y="110" class="sans system-subtitle" fill="#c1c7cc">mobile-first personal AI</text>
<text x="690" y="139" class="sans note" fill="#77828b">A real assistant living on my phone.</text>
<rect x="704" y="183" width="66" height="118" rx="13" fill="#0d1116" stroke="#c1c7cc" stroke-width="1.5"/>
<path d="M725 194H749" stroke="#263039" stroke-width="2"/>
<circle cx="737" cy="282" r="4" fill="#e6a23c"/>
<text x="737" y="246" class="sans evidence" fill="#f3f0e8" text-anchor="middle">J</text>
<path d="M770 241H821" stroke="#263039" marker-end="url(#arrow)"/>
<rect x="827" y="211" width="112" height="60" rx="7" fill="#080b0e" stroke="#e6a23c" stroke-width="1.5"/>
<text x="883" y="237" class="mono fact" fill="#e6a23c" text-anchor="middle">INFERENCE</text>
<text x="883" y="255" class="mono fact" fill="#c1c7cc" text-anchor="middle">ROUTER</text>
<path d="M939 230L989 194" stroke="#263039" marker-end="url(#arrow)"/>
<path d="M939 252L989 288" stroke="#263039" marker-end="url(#arrow)"/>
<rect x="996" y="164" width="170" height="62" rx="7" fill="#0d1116" stroke="#69b8b0" stroke-width="1.5"/>
<text x="1012" y="190" class="mono fact" fill="#69b8b0">ON DEVICE</text>
<text x="1012" y="211" class="sans note" fill="#c1c7cc">quantized local SLM</text>
<rect x="996" y="258" width="170" height="62" rx="7" fill="#0d1116" stroke="#77828b" stroke-width="1.5"/>
<text x="1012" y="284" class="mono fact" fill="#77828b">WHEN NEEDED</text>
<text x="1012" y="305" class="sans note" fill="#c1c7cc">cloud LLM</text>
<text x="690" y="346" class="mono jarvis-principles" fill="#69b8b0">privacy · latency · capability</text>
</g>
<path d="M24 372H1176" stroke="#263039"/>
<text x="24" y="398" class="mono progression" fill="#77828b">BUILT TO LEARN. KEPT BECAUSE THEY TAUGHT ME SOMETHING.</text>
</svg>
